<mxfile host="app.diagrams.net" modified="2023-12-24T20:42:47.629Z" agent="Mozilla/5.0 (Macintosh; Intel Mac OS X 10_15_7) AppleWebKit/605.1.15 (KHTML, like Gecko) Version/17.2 Safari/605.1.15" version="22.1.11" etag="6V4PUIBLcr9PWHW_ggr_" type="github">
  <diagram name="Page-1" id="uoF94smFu23v8054OHu-">
    <mxGraphModel>
      <root>
        <mxCell id="0" />
        <mxCell id="1" parent="0" />
      </root>
    </mxGraphModel>
  </diagram>
</mxfile>
